<?xml version="1.0" encoding="UTF-8" standalone="no"?>
<!-- Created with Inkscape (http://www.inkscape.org/) -->

<svg
   width="210mm"
   height="297mm"
   viewBox="0 0 210 297"
   version="1.1"
   id="svg1"
   xml:space="preserve"
   xmlns="http://www.w3.org/2000/svg"
   xmlns:svg="http://www.w3.org/2000/svg"><defs
     id="defs1"><clipPath
       clipPathUnits="userSpaceOnUse"
       id="clipPath11"><path
         id="path11"
         style="fill:#ff0000;fill-opacity:1;fill-rule:nonzero;stroke:none;stroke-width:0.264583"
         d="m 5.898348,5.6001751 v 2.3083861 h 4.258655 c -3.44e-4,-5.292e-4 -7.15e-4,-0.00101 -10e-4,-0.00156 -0.02488,-0.041535 -0.02758,-0.076092 -0.01447,-0.1214396 0.0065,-0.022582 0.01843,-0.034908 0.03204,-0.054777 0.004,-0.00444 0.0082,-0.00879 0.0124,-0.01292 -0.0011,-0.00259 -0.0025,-0.00516 -0.0036,-0.00775 -0.01246,-0.032171 -0.01811,-0.04475 -0.0279,-0.078548 -0.01972,-0.067738 -0.02909,-0.137981 -0.03359,-0.2082559 -0.0093,-0.1659623 -0.01747,-0.3319452 -0.03101,-0.4976439 -0.006,-0.086053 -0.0088,-0.1310278 -0.01292,-0.1984375 -0.0011,-0.00481 -0.002,-0.00966 -0.0031,-0.01447 -0.01564,-0.075195 -0.02984,-0.1508254 -0.04082,-0.2268596 -0.0039,-0.033054 -0.0049,-0.040276 -0.0072,-0.072864 -0.0023,-0.032671 -0.0033,-0.06495 -0.0041,-0.097668 -0.030154,-0.031389 -0.049448,-0.084788 -0.043925,-0.1596803 0.00198,-0.02694 0.00477,-0.053912 0.015502,-0.079065 0.00293,-0.0047 0.00563,-0.00901 0.00827,-0.013435 C 9.99619,6.0232564 9.990999,5.9835864 9.989179,5.943298 c 6.19e-5,-0.01102 -6.085e-4,-0.022069 0,-0.033073 0.00283,-0.050306 0.016939,-0.099352 0.041857,-0.1431438 0.01636,-0.025429 0.03377,-0.052472 0.05943,-0.069763 0.004,-0.00727 0.0083,-0.014687 0.01344,-0.02222 0.01052,-0.015515 0.02686,-0.02622 0.04031,-0.039274 0.01506,-0.00855 0.02969,-0.018193 0.04548,-0.025321 0.0087,-0.00395 0.01815,-0.00723 0.02791,-0.010335 z m 5.727816,0 c 0.0074,0.00284 0.01474,0.00572 0.02222,0.00827 0.01817,0.017584 0.03943,0.032627 0.05478,0.05271 0.01112,0.014544 0.01737,0.032469 0.02377,0.049609 0.005,0.013303 0.0077,0.027369 0.01034,0.041341 0.0083,0.045018 0.0046,0.085745 5.29e-4,0.1307413 -0.0067,0.043399 -0.0121,0.087408 -0.02222,0.1302247 -0.0023,0.00957 -0.0033,0.020188 -0.0078,0.028939 -0.01098,0.021373 -0.02547,0.040625 -0.03824,0.060978 -0.03916,0.012734 -0.07706,0.032341 -0.117823,0.03824 -0.01652,0.00238 -0.09402,-0.022754 -0.111621,-0.027905 -0.04023,-0.011774 -0.07473,-0.021942 -0.115755,-0.031523 -0.02374,-0.00555 -0.04747,-0.010382 -0.07131,-0.015502 -0.05911,-0.010446 -0.118639,-0.020092 -0.178284,-0.027905 -0.0066,0.00132 -0.01304,0.00286 -0.01964,0.00414 -0.02829,0.0053 -0.0569,0.011179 -0.08527,0.016021 -0.05604,0.00956 -0.114022,0.017582 -0.170532,0.02377 -0.03518,0.00385 -0.07634,0.00709 -0.116272,0.00982 -1.22e-4,0.014301 -4.23e-4,0.028504 -5.29e-4,0.043408 -0.0012,0.023688 -0.0024,0.047112 -0.0036,0.070797 -0.0013,0.024609 -0.0026,0.049277 -0.0036,0.073897 -0.0013,0.032752 -0.0022,0.069673 -0.0026,0.1054201 0.0036,-0.00153 0.0072,-0.00319 0.01085,-0.00465 0.03618,0.027693 0.07441,0.052917 0.110588,0.080615 0.078,-0.00462 0.156466,-0.00686 0.234611,-0.00568 0.07086,0.00257 0.14072,0.013475 0.21084,0.023254 0.03962,0.00634 0.07985,0.00795 0.119889,0.00723 0.03416,-9.525e-4 0.06814,-0.00277 0.102319,-0.00156 0.0076,9.261e-4 0.01524,7.938e-4 0.02274,0.00259 0.01291,0.0031 0.02646,0.00577 0.03824,0.011885 0.04003,0.020794 0.05969,0.042518 0.07648,0.0863 0.0071,0.018613 0.0067,0.035044 0.0057,0.051677 0.02607,0.024897 0.04492,0.049888 0.03721,0.099219 -0.0052,0.033486 -0.02636,0.062451 -0.04548,0.090434 -0.0078,0.011393 -0.02157,0.017174 -0.03307,0.024805 -6.61e-4,4.233e-4 -0.0019,0.00111 -0.0026,0.00156 -0.0021,0.00551 -0.0041,0.011012 -0.0062,0.016536 -0.01669,0.017793 -0.02995,0.0393 -0.04961,0.053743 -0.01422,0.010451 -0.0326,0.014917 -0.04961,0.019637 -0.02491,0.00691 -0.05371,0.0051 -0.08165,0.00156 -0.02506,0.010327 -0.05056,0.019942 -0.07648,0.027389 -0.01481,0.00425 -0.02999,0.00769 -0.04496,0.011369 -0.07904,0.015213 -0.159638,0.017121 -0.239778,0.02222 -0.05501,0.00337 -0.109928,0.00508 -0.164848,0.00982 -0.02383,0.00212 -0.04766,0.00534 -0.07131,0.00878 -0.0066,0.040332 -0.0137,0.0802 -0.02119,0.1204063 -0.0088,0.047535 -0.01829,0.095138 -0.02739,0.1426269 -0.0041,0.021291 -0.0079,0.042777 -0.01189,0.064079 -0.0056,0.034282 -0.0098,0.057382 -0.01343,0.084232 0.01067,0.00175 0.02134,0.00359 0.03204,0.00517 0.01409,0.00188 0.05122,0.00676 0.06563,0.00827 0.05069,0.00533 0.101496,0.00725 0.152446,0.00723 0.09079,-0.00212 0.181368,-0.0097 0.271818,-0.017571 0.07013,-0.00791 0.140593,-0.015878 0.210323,-0.026872 0.01338,-0.00193 0.05216,-0.00732 0.06563,-0.0093 0.03191,-0.0047 0.06396,-0.010149 0.09612,-0.01292 0.0097,-8.202e-4 0.01924,-0.00103 0.02894,-0.00156 0.0078,3.44e-4 0.01545,2.294e-4 0.02325,0.00103 0.04446,0.00461 0.08196,0.022024 0.112655,0.054777 0.0066,0.00943 0.01414,0.018288 0.01964,0.028422 0.02121,0.03908 0.02307,0.08364 0.01033,0.1255737 -0.0025,0.00821 -0.0066,0.015822 -0.0098,0.02377 -0.0041,0.00742 -0.008,0.01496 -0.0124,0.02222 -0.01675,0.027582 -0.03889,0.051661 -0.05994,0.075964 7.4e-4,0.00725 0.002,0.014428 0.0026,0.021704 7.14e-4,0.030029 0.0042,0.065651 -0.0098,0.093535 -0.01255,0.02499 -0.03111,0.0472 -0.05168,0.066146 -0.003,0.00276 -0.0062,0.00503 -0.0098,0.00723 h 3.496954 V 5.6001756 Z" /></clipPath></defs><g
     id="layer1"><g
       id="text1"
       style="font-size:3.175px;font-family:'CC Wild Words';-inkscape-font-specification:'CC Wild Words';text-align:center;letter-spacing:0px;text-anchor:middle;display:inline;stroke-width:0.1"
       aria-label="SHELF&#10;AWARE"><path
         style="font-weight:bold;font-family:'Amazon Ember';-inkscape-font-specification:'Amazon Ember';fill:#242f40"
         d="m 6.4284433,6.8924914 q -0.282575,-0.104775 -0.4064,-0.254 -0.123825,-0.1523999 -0.123825,-0.3841749 0,-0.29845 0.219075,-0.47625 0.22225,-0.1778 0.593725,-0.1778 0.31115,0 0.6096,0.1143 v 0.36195 q -0.307975,-0.09525 -0.5715,-0.09525 -0.37465,0 -0.37465,0.2413 0,0.0889 0.0635,0.14605 0.066675,0.05715 0.244475,0.12065 l 0.23495,0.085725 q 0.295275,0.1079499 0.4191,0.2539999 0.127,0.142875 0.127,0.37465 0,0.327025 -0.23495,0.517525 -0.23495,0.187325 -0.644525,0.187325 -0.1778,0 -0.3556,-0.034925 -0.1778,-0.03175 -0.3048,-0.0889 v -0.36195 q 0.15875,0.047625 0.339725,0.0762 0.180975,0.028575 0.327025,0.028575 0.187325,0 0.288925,-0.066675 0.1016,-0.06985 0.1016,-0.19685 0,-0.098425 -0.0635,-0.155575 -0.060325,-0.05715 -0.24765,-0.127 z m 2.781297,0.962025 v -0.936625 h -0.8763 v 0.936625 h -0.47625 V 5.6542415 h 0.47625 v 0.89535 h 0.8763 v -0.89535 h 0.47625 v 2.2002749 z m 0.9842507,0 V 5.6542415 h 1.4478 v 0.3683 h -0.97155 v 0.5207 h 0.790575 v 0.3682999 h -0.790575 v 0.574675 h 0.97155 v 0.3683 z m 1.835147,0 V 5.6542415 h 0.47625 v 1.8192749 h 0.9652 v 0.381 z m 1.724022,0 V 5.6542415 h 1.3843 v 0.3683 h -0.90805 v 0.55245 h 0.7239 v 0.3682999 h -0.7239 v 0.911225 z"
         id="path5"
         clip-path="url(#clipPath11)" /><path
         style="font-weight:bold;font-family:'Amazon Ember';-inkscape-font-specification:'Amazon Ember';fill:#242f40"
         d="m 6.5549307,10.395172 -0.155575,-0.50165 h -0.752475 l -0.149225,0.50165 H 4.9991808 L 5.7738807,8.194897 h 0.523875 l 0.7747,2.200275 z m -0.80645,-0.84455 h 0.55245 l -0.2794,-0.92075 z m 3.0734,0.84455 -0.34925,-1.552575 -0.33655,1.552575 H 7.6185557 L 7.0089558,8.194897 h 0.5270499 l 0.34925,1.68275 0.34925,-1.628775 h 0.50165 l 0.3556,1.622425 0.3429,-1.6764 h 0.51435 l -0.606425,2.200275 z m 2.6193733,0 -0.155575,-0.50165 h -0.752475 l -0.149225,0.50165 H 9.8855042 L 10.660204,8.194897 h 0.523875 l 0.7747,2.200275 z m -0.80645,-0.84455 h 0.55245 l -0.2794,-0.92075 z m 1.597028,0.84455 V 8.194897 h 0.847725 q 0.3429,0 0.542925,0.180975 0.200025,0.180975 0.200025,0.492125 0,0.1905 -0.104775,0.3429 -0.104775,0.1524 -0.295275,0.238125 l 0.5461,0.94615 h -0.492125 l -0.47625,-0.854075 h -0.31115 v 0.854075 z m 0.4572,-1.184275 h 0.3302 q 0.333375,0 0.333375,-0.33655 0,-0.3302 -0.327025,-0.3302 h -0.33655 z m 1.565273,1.184275 V 8.194897 h 1.4478 v 0.3683 h -0.97155 v 0.5207 h 0.790575 v 0.3683 h -0.790575 v 0.574675 h 0.97155 v 0.3683 z"
         id="path6" /></g><path
       id="rect6"
       style="display:inline;fill:#242f40;fill-opacity:1;stroke-width:0.0997489"
       d="m 10.198344,5.6585693 v 2.1786784 h 1.442289 V 5.6585693 Z M 10.35389,5.915918 h 0.121956 V 6.3272624 H 10.35389 Z m -0.0031,0.6366536 h 1.179257 V 6.6946818 H 10.35079 Z m 0.0031,0.3741374 h 0.121956 V 7.6005697 H 10.35389 Z" /><path
       style="display:none;fill:#242f40;fill-opacity:1;stroke-width:0.1"
       d="M 11.639599,5.6544352 V 7.8548176 L 11.061049,8.188844 V 5.3261804 Z"
       id="path7" /><path
       style="display:none;fill:#242f40;fill-opacity:1;stroke-width:0.1"
       d="M 11.634104,7.8479715 V 5.6475889 l 0.57855,-0.3340264 v 2.8626641 z"
       id="path7-7" /></g></svg>
